<?xml version="1.0" encoding="utf-8"?>
<!-- Generator: Adobe Illustrator 23.0.2, SVG Export Plug-In . SVG Version: 6.00 Build 0)  -->
<svg version="1.1" id="Camada_1" xmlns="http://www.w3.org/2000/svg" xmlns:xlink="http://www.w3.org/1999/xlink" x="0px" y="0px"
	 viewBox="0 0 283.5 45.3" style="enable-background:new 0 0 283.5 45.3;" xml:space="preserve">
<style type="text/css">
	.st0{fill:#FFFFFF;}
	.st1{fill:#E2EAF4;}
</style>
<path id="XMLID_11_" class="st0" d="M2.2,40.9v-9.8c4.4,1.5,10.5,3.5,15.3,3.5c1.9,0,5.8-0.3,5.8-3.3c0-1.6-2.2-2.4-4.1-2.9
	c-2-0.6-4.7-1.2-7.3-2.1C6.8,24.4,2,21.5,2,15C2,5.8,10.6,2,21.4,2c4.7,0,11.4,0.8,16,2.1v9.4c-1.7-0.4-5.7-1.3-8.2-1.9
	c-2.2-0.5-4.6-0.8-6.8-0.8c-2.1,0-6.4,0.3-6.4,3.5c0,1.7,2.4,2.5,4.1,3c2,0.6,4.6,1.2,7.3,2.1c5.2,1.8,10,4.6,10,11
	c0,9-9.2,12.8-19.7,12.8C12.5,43.2,7.1,42.7,2.2,40.9"/>
<path id="XMLID_24_" class="st0" d="M259.4,11.8c-3.9,0-5.9,1.7-6.8,4c-0.4,1.1-0.5,2.3-0.6,3.4v3.4v3.5c0.1,1.2,0.2,2.4,0.6,3.5
	c0.8,2.3,2.9,4.1,6.9,4.1c4,0,6-1.8,6.8-4.2c0.4-1.1,0.5-2.3,0.6-3.5s0-2.3,0-3.4c0-1.2,0.1-2.4,0-3.5c-0.1-1.2-0.2-2.4-0.6-3.5
	C265.5,13.4,263.5,11.8,259.4,11.8 M236.7,22.7c0-13.4,6.2-20.7,22.8-20.7s22.7,7.3,22.7,20.7c0,13.6-5.9,20.5-22.7,20.5
	C243,43.2,236.7,35.9,236.7,22.7"/>
<path id="XMLID_8_" class="st0" d="M231.1,3.9c0-0.7-0.6-1.3-1.3-1.3c0,0,0,0-0.1,0l0,0h-13.8c-0.7,0-1.3,0.6-1.3,1.3v37.5
	c0,0.7,0.6,1.3,1.3,1.3h13.8c0.7,0,1.3-0.6,1.3-1.2l0,0V3.9H231.1z"/>
<path id="XMLID_7_" class="st0" d="M209,42c0-0.1,0-0.2-0.1-0.3l0,0l-11.8-21.1l11.1-17l0,0c0.1-0.1,0.1-0.2,0.1-0.3
	c0-0.4-0.3-0.6-0.6-0.6h-14.3l0,0l0,0c-0.5,0-0.9,0.3-1.1,0.6l0,0l-10.4,17.2V3.9l0,0c0-0.7-0.6-1.3-1.3-1.3h-13.2
	c-0.7,0-1.2,0.5-1.3,1.2l0,0v38.9h14.5l0,0l0,0c0.7,0,1.3-0.6,1.3-1.3l0,0V25.6l10,16.4c0.2,0.3,0.6,0.6,1,0.6l0,0h15.5
	C208.8,42.6,209,42.3,209,42"/>
<path id="XMLID_6_" class="st0" d="M97.5,3.8c0-0.7-0.6-1.2-1.2-1.2l0,0H82.2c-0.5,0-0.9,0.3-1.1,0.7l0,0c0,0,0,0,0,0.1
	c0,0,0,0,0,0.1c-3.3,7-5,10-8.3,18h-5c-3.3-7.8-4.9-11-8.2-18l0,0c-0.2-0.4-0.6-0.8-1.2-0.8H44.3C43.6,2.7,43,3.3,43,4v37.5
	c0,0.7,0.6,1.3,1.3,1.3h9.9c0.7,0,1.3-0.6,1.3-1.3l0,0V29.6v-6h1.9c2.6,6.8,5.1,12.5,7.7,18.2l0,0c0.2,0.4,0.6,0.8,1.2,0.8h0.1h7.3
	c0,0,0,0,0.1,0c0.5,0,1-0.3,1.2-0.7l0,0c2.5-5.8,5.1-11.5,7.8-18.2h1.9c0,6.1-0.1,11.6,0,16.8l0,0c0,0.3,0.3,0.6,0.6,0.6
	c0.3,0,0.5-0.2,0.6-0.4l0,0l11.7-31L97.5,3.8L97.5,3.8z"/>
<polygon id="XMLID_5_" class="st1" points="90.1,42.6 105,42.6 120.1,2.6 105.3,2.6 "/>
<polygon id="XMLID_4_" class="st0" points="135.3,42.6 120.5,42.6 105.3,2.6 120.1,2.6 "/>
<polygon id="XMLID_14_" class="st1" points="105.3,2.6 112.7,22.2 112.1,23.8 104.6,4.4 "/>
<path id="XMLID_16_" class="st0" d="M160.4,15.7c0-10.4-9.1-13.2-20.9-13.2H128c-0.7,0-1.3,0.6-1.3,1.3c0,0.2,0,0.3,0.1,0.5l0,0
	l2.6,7h5.6h1.6h3.1c4.6,0,5.5,1.5,5.5,5c0,3.4-0.7,5.1-5.5,5.1H135l0,0h-1.8l1.8,4.8l0.6,1.5l5.5,14.5l0,0c0.2,0.3,0.6,0.5,1,0.5
	c0,0,0,0,0.1,0l0,0h14.2c0.3,0,0.6-0.3,0.6-0.6c0-0.1-0.1-0.3-0.1-0.4l0,0l-5.5-14C158.4,24.8,160.4,21.2,160.4,15.7"/>
</svg>
