<svg xmlns="http://www.w3.org/2000/svg" xmlns:xlink="http://www.w3.org/1999/xlink" viewBox="0 0 425.83 54.53"><defs><style>.cls-1{fill:#fff;}.cls-2{fill:#e2eaf4;}.cls-3{fill:url(#Gradiente_sem_nome_2);}</style><linearGradient id="Gradiente_sem_nome_2" x1="400.94" y1="47.32" x2="386.09" y2="20.04" gradientTransform="matrix(1, 0, 0, -1, 0, 60.94)" gradientUnits="userSpaceOnUse"><stop offset="0" stop-color="#0b90ff"/><stop offset="1" stop-color="#11dcff"/></linearGradient></defs><title>smarkiod1_logo_w</title><g id="Camada_2" data-name="Camada 2"><g id="Camada_1-2" data-name="Camada 1"><path class="cls-1" d="M.21,47.22V36.78c4.69,1.6,11.19,3.73,16.3,3.73,2,0,6.18-.32,6.18-3.52,0-1.7-2.34-2.55-4.37-3.09s-5-1.28-7.77-2.23C5.11,29.64,0,26.55,0,19.63,0,9.83,9.16,5.78,20.67,5.78A71,71,0,0,1,37.71,8V18c-1.81-.43-6.07-1.38-8.74-2a33.14,33.14,0,0,0-7.24-.86c-2.24,0-6.82.32-6.82,3.73,0,1.81,2.56,2.67,4.37,3.2,2.13.64,4.9,1.28,7.78,2.24C32.6,26.23,37.71,29.22,37.71,36c0,9.59-9.8,13.64-21,13.64A48.08,48.08,0,0,1,.21,47.22"/><path class="cls-1" d="M274.19,16.22c-4.16,0-6.29,1.81-7.25,4.26a14.33,14.33,0,0,0-.63,3.62v7.35a14.35,14.35,0,0,0,.63,3.73c.86,2.45,3.09,4.37,7.35,4.37s6.4-1.92,7.25-4.48a14.79,14.79,0,0,0,.64-3.72c.1-1.28,0-2.45,0-3.63s.1-2.55,0-3.72a14.79,14.79,0,0,0-.64-3.73c-.85-2.35-3-4.05-7.35-4.05M250,27.83c0-14.27,6.6-22,24.28-22s24.18,7.78,24.18,22c0,14.49-6.28,21.84-24.18,21.84-17.57,0-24.28-7.78-24.28-21.84"/><path class="cls-1" d="M244,7.8a1.41,1.41,0,0,0-1.38-1.38H227.85a1.41,1.41,0,0,0-1.38,1.38v40a1.41,1.41,0,0,0,1.38,1.39h14.7a1.4,1.4,0,0,0,1.39-1.28h0V7.8Z"/><path class="cls-1" d="M220.5,48.39a.38.38,0,0,0-.11-.32h0L207.82,25.59l11.83-18.1h0a.39.39,0,0,0,.11-.32.61.61,0,0,0-.64-.64H203.88a1.44,1.44,0,0,0-1.17.64h0L191.63,25.49V7.8h0a1.41,1.41,0,0,0-1.38-1.38H176.19A1.39,1.39,0,0,0,174.8,7.7h0V49.14h15.45a1.41,1.41,0,0,0,1.38-1.39h0V30.92l10.66,17.47a1.39,1.39,0,0,0,1.06.64h16.51a.61.61,0,0,0,.64-.64"/><path class="cls-1" d="M101.73,7.7a1.29,1.29,0,0,0-1.28-1.28h-15a1.3,1.3,0,0,0-1.17.75h0v.21C80.74,14.84,78.93,18,75.42,26.55H70.09c-3.51-8.31-5.22-11.71-8.73-19.17h0a1.44,1.44,0,0,0-1.28-.85h-15a1.41,1.41,0,0,0-1.39,1.38v40a1.41,1.41,0,0,0,1.39,1.38H55.6A1.41,1.41,0,0,0,57,47.86h0V28.79h2C61.78,36,64.45,42.1,67.22,48.18h0a1.43,1.43,0,0,0,1.27.85h8a1.46,1.46,0,0,0,1.28-.75h0C80.42,42.11,83.19,36,86.07,28.9h2c0,6.49-.1,12.35,0,17.89h0a.69.69,0,0,0,.64.64.71.71,0,0,0,.64-.42h0l12.47-33-.11-6.28Z"/><polygon class="cls-2" points="93.85 49.03 109.72 49.03 125.8 6.42 110.04 6.42 93.85 49.03"/><polygon class="cls-1" points="141.99 49.03 126.23 49.03 110.04 6.42 125.8 6.42 141.99 49.03"/><polygon class="cls-2" points="110.04 6.42 117.92 27.3 117.28 29 109.29 8.34 110.04 6.42"/><path class="cls-1" d="M168.73,20.37c0-11.07-9.69-14.06-22.26-14.06H134.22a1.41,1.41,0,0,0-1.39,1.39.93.93,0,0,0,.11.53h0l2.77,7.46h11c4.9,0,5.86,1.6,5.86,5.32s-.75,5.44-5.86,5.44h-6.92l1.91,5.11.64,1.6,5.86,15.44h0a1.33,1.33,0,0,0,1.07.54h15.23a.69.69,0,0,0,.64-.64c0-.11-.11-.32-.11-.43h0l-5.86-14.91c7.46-3.09,9.59-6.93,9.59-12.79"/><path class="cls-1" d="M388.38,0a.47.47,0,0,0-.46.46V12.4a.47.47,0,0,0,.46.47h6.72a.46.46,0,0,1,.46.46V54.07a.46.46,0,0,0,.46.46h13a.46.46,0,0,0,.46-.46V.46A.47.47,0,0,0,409,0Z"/><path class="cls-1" d="M359,0H338.57a.47.47,0,0,0-.47.46V54.07a.46.46,0,0,0,.47.46h20.55c9.21,0,16.37-2.48,21.26-7.38s7.54-11.58,7.54-19.78-2.57-14.81-7.6-19.77S368.19,0,359,0Zm-7,13.33a.46.46,0,0,1,.46-.46h5.81c5.8,0,9.87,1.26,12.13,3.8s3.5,6.13,3.5,10.7c0,9.74-4.94,14.28-15.55,14.28h-5.89a.47.47,0,0,1-.46-.46Z"/><path class="cls-3" d="M425.36,24.53H361.48A.47.47,0,0,0,361,25v4.86a.47.47,0,0,0,.46.46h63.88a.47.47,0,0,0,.47-.46V25A.47.47,0,0,0,425.36,24.53Z"/></g></g></svg>