<svg xmlns="http://www.w3.org/2000/svg" xmlns:xlink="http://www.w3.org/1999/xlink" viewBox="0 0 425.95 54.53"><defs><style>.cls-1{fill:#4c4c52;}.cls-2{fill:#6183c1;}.cls-3{fill:#90bbe5;}.cls-4{fill:#34589e;}.cls-5{fill:url(#Gradiente_sem_nome_2);}</style><linearGradient id="Gradiente_sem_nome_2" x1="401.07" y1="43.72" x2="386.22" y2="16.44" gradientTransform="matrix(1, 0, 0, -1, 0, 57.33)" gradientUnits="userSpaceOnUse"><stop offset="0" stop-color="#0b90ff"/><stop offset="1" stop-color="#11dcff"/></linearGradient></defs><title>SmarkioD1</title><g id="Camada_2" data-name="Camada 2"><g id="Camada_1-2" data-name="Camada 1"><path class="cls-1" d="M.2,46.77V36.37c4.7,1.6,11.2,3.8,16.3,3.8,2,0,6.2-.3,6.2-3.5,0-1.7-2.4-2.6-4.4-3.1s-5-1.3-7.8-2.3c-5.4-2-10.5-5.1-10.5-12,0-9.8,9.2-13.9,20.7-13.9a74.74,74.74,0,0,1,17,2.2v10c-1.8-.4-6.1-1.4-8.7-2a35.56,35.56,0,0,0-7.3-.9c-2.3,0-6.8.3-6.8,3.7,0,1.8,2.5,2.7,4.4,3.2,2.1.6,4.9,1.3,7.8,2.3,5.5,1.9,10.6,4.9,10.6,11.7,0,9.6-9.8,13.6-21,13.6A45.88,45.88,0,0,1,.2,46.77"/><path class="cls-1" d="M274.3,15.77c-4.2,0-6.3,1.8-7.2,4.3a10.88,10.88,0,0,0-.6,3.6V31a15.87,15.87,0,0,0,.6,3.8c.8,2.5,3.1,4.4,7.4,4.4s6.4-1.9,7.2-4.4a15.87,15.87,0,0,0,.6-3.8c.1-1.2,0-2.5,0-3.6,0-1.3.1-2.5,0-3.7a15.06,15.06,0,0,0-.6-3.7c-.9-2.5-3-4.2-7.4-4.2m-24.2,11.6c0-14.3,6.7-22,24.3-22s24.2,7.7,24.2,22c0,14.5-6.3,21.8-24.2,21.8-17.5.1-24.3-7.7-24.3-21.8"/><path class="cls-1" d="M244.1,7.37A1.43,1.43,0,0,0,242.7,6H227.9a1.37,1.37,0,0,0-1.4,1.4v39.9a1.37,1.37,0,0,0,1.4,1.4h14.7a1.49,1.49,0,0,0,1.4-1.3h0v-40Z"/><path class="cls-1" d="M220.7,48a.37.37,0,0,0-.1-.3h0L208,25.27l11.8-18.2h0c.1-.1.1-.2.1-.4a.68.68,0,0,0-.7-.7H203.9a1.52,1.52,0,0,0-1.2.7h0L191.6,25V7.37h0A1.43,1.43,0,0,0,190.2,6H176.1a1.32,1.32,0,0,0-1.3,1.3h0v41.4h15.5a1.37,1.37,0,0,0,1.4-1.4h0V30.47L202.4,48a1.15,1.15,0,0,0,1.1.6H220a.56.56,0,0,0,.7-.6"/><path class="cls-1" d="M101.8,7.27A1.32,1.32,0,0,0,100.5,6h-15a1.39,1.39,0,0,0-1.2.7h0v.2c-3.5,7.5-5.3,10.7-8.9,19.2H70.1c-3.6-8.4-5.3-11.8-8.8-19.3h0A1.3,1.3,0,0,0,60.1,6h-15a1.37,1.37,0,0,0-1.4,1.4v39.9a1.37,1.37,0,0,0,1.4,1.4H55.6a1.37,1.37,0,0,0,1.4-1.4h0V28.47h2c2.8,7.3,5.4,13.3,8.2,19.4h0a1.3,1.3,0,0,0,1.2.8h8a1.21,1.21,0,0,0,1.2-.8h0c2.7-6.1,5.5-12.2,8.3-19.4h2c0,6.4-.1,12.3,0,17.9h0a.68.68,0,0,0,.7.7.68.68,0,0,0,.6-.4h0l12.5-33,.1-6.4Z"/><polygon class="cls-2" points="93.9 48.67 109.7 48.67 125.9 5.97 110.1 5.97 93.9 48.67"/><polygon class="cls-3" points="142 48.67 126.2 48.67 110.1 5.97 125.9 5.97 142 48.67"/><polygon class="cls-4" points="110.1 5.97 118 26.87 117.3 28.57 109.4 7.87 110.1 5.97"/><path class="cls-1" d="M168.8,20c0-11-9.7-14.1-22.2-14.1H134.3a1.43,1.43,0,0,0-1.4,1.4.9.9,0,0,0,.1.5h0l2.8,7.5h10.9c4.9,0,5.9,1.6,5.9,5.3s-.8,5.5-5.9,5.5h-6.9l1.9,5.1.6,1.6,5.9,15.4h0a1.52,1.52,0,0,0,1.1.6h15.2a.68.68,0,0,0,.7-.7.52.52,0,0,0-.2-.4h0l-5.8-15c7.4-3,9.6-6.9,9.6-12.7"/><path class="cls-1" d="M388.51,0a.47.47,0,0,0-.46.46V12.4a.47.47,0,0,0,.46.47h6.71a.46.46,0,0,1,.47.46V54.07a.45.45,0,0,0,.46.46h13a.46.46,0,0,0,.47-.46V.46a.47.47,0,0,0-.47-.46Z"/><path class="cls-1" d="M359.17,0H338.69a.47.47,0,0,0-.46.46V54.07a.46.46,0,0,0,.46.46h20.56c9.21,0,16.36-2.48,21.26-7.38s7.54-11.58,7.54-19.78-2.57-14.81-7.61-19.76S368.31,0,359.17,0Zm-7,13.33a.45.45,0,0,1,.46-.46h5.81c5.79,0,9.87,1.27,12.13,3.8s3.5,6.13,3.5,10.7c0,9.74-4.94,14.28-15.55,14.28h-5.89a.46.46,0,0,1-.46-.46Z"/><path class="cls-5" d="M425.49,24.54H361.61a.45.45,0,0,0-.46.46v4.86a.46.46,0,0,0,.46.46h63.88a.46.46,0,0,0,.46-.46V25A.45.45,0,0,0,425.49,24.54Z"/></g></g></svg>